<svg width="318" height="46" viewBox="0 0 318 46" fill="none" xmlns="http://www.w3.org/2000/svg">
<path d="M19.1982 38.5424H24.1639L31.6712 16.7635H25.4933L21.7397 28.1026L18.1816 16.7635H13.4505L9.97056 28.1026L6.17784 16.7635H0L7.54634 38.5424H12.3948L15.7965 27.7507L19.1982 38.5424Z" fill="#4F0743"/>
<path d="M40.4834 38.6988C42.0083 38.6988 43.4941 38.386 44.9017 37.7604C46.2702 37.1739 47.4823 36.3137 48.4989 35.2579L44.3543 31.3479C43.3377 32.4427 41.9692 33.0292 40.4834 33.0292C38.5675 33.0292 36.8862 32.0126 35.9478 30.5268H51.4705V27.6725C51.4705 24.74 50.3366 21.9639 48.2643 19.8916C46.192 17.8192 43.4159 16.6462 40.4834 16.6462C37.5118 16.6462 34.7748 17.8192 32.6633 19.8916C30.591 21.9639 29.4571 24.74 29.4571 27.6725C29.4571 30.605 30.591 33.3811 32.6633 35.4534C34.7748 37.5258 37.5118 38.6988 40.4834 38.6988ZM35.9478 24.8573C36.8862 23.3324 38.5675 22.3158 40.4834 22.3158C42.3602 22.3158 44.0415 23.3324 45.019 24.8573H35.9478Z" fill="#5A104E"/>
<path d="M58.6937 38.5424V28.9238C58.6937 25.1701 61.7435 22.0812 65.5362 22.0812V16.2162C63.8158 16.2162 62.1345 16.5681 60.5705 17.2328C59.0847 17.8584 57.7162 18.7968 56.5432 19.9698C55.3702 21.1037 54.4709 22.4722 53.8062 23.9971C53.1415 25.5611 52.8287 27.2033 52.8287 28.9238V38.5424H58.6937Z" fill="#651858"/>
<path d="M80.0626 38.5424H86.9833L78.9678 26.1476L87.4525 16.7635H79.9453L72.5553 25.0528V7.02759H66.6512V38.5424H72.5553V32.9901L74.9013 30.4486L80.0626 38.5424Z" fill="#702063"/>
<path d="M89.8993 37.4476C91.1897 37.4476 92.2063 36.431 92.2063 35.1407C92.2063 33.8503 91.1897 32.8337 89.8993 32.8337C88.609 32.8337 87.5534 33.8503 87.5534 35.1407C87.5534 36.431 88.609 37.4476 89.8993 37.4476Z" fill="#7A286C"/>
<path d="M96.3637 38.5424H102.268V15.9816L96.3637 17.9366V38.5424Z" fill="#853177"/>
<path d="M118.187 22.2376V16.7636H111.97V9.76465L106.105 11.7197V26.8905C106.105 28.5328 106.418 30.0968 107.044 31.5826C107.63 33.0293 108.529 34.3196 109.624 35.4144C110.719 36.5483 112.009 37.4085 113.456 38.0341C114.942 38.6597 116.545 38.9725 118.187 38.9725V33.1075C114.746 33.1075 111.97 30.3314 111.97 26.8905V22.2376H118.187Z" fill="#903A82"/>
</svg>
