<svg width="318" height="32" viewBox="0 0 318 32" fill="none" xmlns="http://www.w3.org/2000/svg">
    <path
        d="M19.2313 31.5692H24.2056L31.7258 9.75275H25.5373L21.7772 21.1114L18.213 9.75275H13.4737L9.98777 21.1114L6.1885 9.75275H0L7.55936 31.5692H12.4162L15.8237 20.7589L19.2313 31.5692Z"
        fill="#4F0743" />
    <path
        d="M40.5532 31.7258C42.0808 31.7258 43.5692 31.4125 44.9792 30.7858C46.3501 30.1983 47.5643 29.3366 48.5826 28.2791L44.4308 24.3623C43.4125 25.459 42.0416 26.0465 40.5532 26.0465C38.634 26.0465 36.9498 25.0281 36.0098 23.5398H51.5594V20.6805C51.5594 17.743 50.4235 14.9621 48.3476 12.8862C46.2717 10.8103 43.4908 9.63525 40.5532 9.63525C37.5765 9.63525 34.8348 10.8103 32.7197 12.8862C30.6438 14.9621 29.508 17.743 29.508 20.6805C29.508 23.6181 30.6438 26.399 32.7197 28.4749C34.8348 30.5508 37.5765 31.7258 40.5532 31.7258ZM36.0098 17.8605C36.9498 16.3329 38.634 15.3146 40.5532 15.3146C42.4333 15.3146 44.1175 16.3329 45.0967 17.8605H36.0098Z"
        fill="#5A104E" />
    <path
        d="M58.795 31.5692V21.9339C58.795 18.1738 61.8501 15.0796 65.6493 15.0796V9.20441C63.9259 9.20441 62.2417 9.55692 60.675 10.2228C59.1867 10.8495 57.8158 11.7895 56.6408 12.9645C55.4657 14.1004 54.5649 15.4712 53.899 16.9988C53.2332 18.5655 52.9198 20.2105 52.9198 21.9339V31.5692H58.795Z"
        fill="#651858" />
    <path
        d="M80.2007 31.5692H87.1334L79.104 19.153L87.6034 9.75275H80.0832L72.6805 18.0563V0H66.7662V31.5692H72.6805V26.0073L75.0306 23.4614L80.2007 31.5692Z"
        fill="#702063" />
    <path
        d="M90.0545 30.4725C91.347 30.4725 92.3654 29.4541 92.3654 28.1616C92.3654 26.869 91.347 25.8507 90.0545 25.8507C88.7619 25.8507 87.7044 26.869 87.7044 28.1616C87.7044 29.4541 88.7619 30.4725 90.0545 30.4725Z"
        fill="#7A286C" />
    <path d="M96.5299 31.5691H102.444V8.9694L96.5299 10.9278V31.5691Z" fill="#853177" />
    <path
        d="M118.391 15.2362V9.75276H112.163V2.74174L106.288 4.70012V19.8972C106.288 21.5422 106.602 23.1089 107.228 24.5973C107.816 26.0465 108.717 27.339 109.813 28.4357C110.91 29.5716 112.203 30.4333 113.652 31.06C115.14 31.6867 116.746 32 118.391 32V26.1248C114.944 26.1248 112.163 23.3439 112.163 19.8972V15.2362H118.391Z"
        fill="#903A82" />
</svg>