<svg data-name="Layer 1" xmlns="http://www.w3.org/2000/svg" viewBox="0 0 400 400"><linearGradient id="prefix__a"><stop offset="0%" stop-color="var(--tw-gradient-to)"/><stop offset="100%" stop-color="var(--tw-gradient-from)"/></linearGradient><g fill="url(#prefix__a)"><path d="M383.8 105.8c-.9-2.7-3.3-4.7-6.1-5.3l-38.9-8 7.4-36.2c.5-2.7-.3-5.4-2.2-7.4a8.54 8.54 0 00-7.3-2.4l-33.8 5.3-20-46.3c-1.2-2.9-4.2-4.9-7.4-5h-.2c-3.2 0-6.1 1.8-7.5 4.7l-21.4 43.5c9 6.4 17.3 13.9 24.9 22.4 30.6 34.2 45.3 80.6 40.4 127.4-7.5 72.1 1.7 124.9 27.5 156.7 3.7 4.7 5.6 10.3 5.5 16l25.5-33.7c1.4-1.9 2-4.2 1.6-6.6-.4-2.3-1.8-4.3-3.8-5.5L344.8 311l6.3-17.3c.8-2.2.7-4.8-.5-6.9l-14.5-25.7 33.4-20.8c2.4-1.5 3.8-4.1 3.9-7 0-2.8-1.4-5.5-3.7-7l-27.1-17.8 38.6-25.1c2.1-1.3 3.4-3.5 3.7-5.9.3-2.4-.5-4.9-2.2-6.6L358 144.1l24.4-30.3c1.9-2.2 2.4-5.2 1.4-8zM155.5 108.7c0 7.2-5.8 13-13 13s-13-5.8-13-13 5.8-13 13-13 13 5.8 13 13"/><path d="M69 361.9c0 21.4 31.6 37.6 73.5 37.6 29.5 0 53.9-8 65.7-20.2h111.6c3.2 0 6.1-1.9 7.6-4.7 1.3-2.9.9-6.3-1.1-8.8-28.6-35.4-39.1-92.3-31.1-169 4.4-42.1-8.8-83.9-36.2-114.6-25.3-28.3-59.3-44-96.2-44.2-26.4-.1-52.4-.3-74.1-.1-18.1 0-35.5 7.1-49 19.9-13.5 12.6-22 29.9-24.2 48.7-4.5 37.6 17.3 73.1 51.9 84.4 23.2 7.5 37.6 17.4 40.6 27.8 2.2 7.3-1 16.3-9.5 26.5-22.3 26.8-21.7 56.9 1.3 85.8C81 337.5 69 348.7 69 361.9zM195.7 217c0 4.6-3.7 8.3-8.3 8.3-13.3 0-22.5 6.9-22.5 13.1 0 6.2 9.2 13.1 22.5 13.1 4.6 0 8.3 3.7 8.3 8.3 0 4.6-3.7 8.3-8.3 8.3-21.9 0-39.1-13-39.1-29.8s17.2-29.8 39.1-29.8c4.5.1 8.3 3.9 8.3 8.5zM142.5 79.1c16.3 0 29.6 13.3 29.6 29.6s-13.3 29.6-29.6 29.6-29.6-13.3-29.6-29.6 13.3-29.6 29.6-29.6z"/></g></svg>